<svg xmlns="http://www.w3.org/2000/svg" version="1.1" xmlns:xlink="http://www.w3.org/1999/xlink" xmlns:svgjs="http://svgjs.com/svgjs" width="1440" height="560" preserveAspectRatio="none" viewBox="0 0 1440 560"><g mask="url(&quot;#SvgjsMask1000&quot;)" fill="none"><rect width="1440" height="560" x="0" y="0" fill="#0e2a47"></rect><path d="M-70.92 529.27L-70.92 529.27" stroke="#132e65" stroke-width="1.5"></path><path d="M-70.92 529.27L-103.72 640.51" stroke="#132e65" stroke-width="1.5"></path><path d="M-70.92 529.27L82.04 537.37" stroke="#132e65" stroke-width="1.5"></path><path d="M-70.92 529.27L109.64 648.93" stroke="#132e65" stroke-width="1.5"></path><path d="M-70.92 529.27L81.16 348.8" stroke="#132e65" stroke-width="1.5"></path><path d="M-70.92 529.27L200.93 650.15" stroke="#132e65" stroke-width="1.5"></path><path d="M-103.72 640.51L-103.72 640.51" stroke="#132e65" stroke-width="1.5"></path><path d="M-103.72 640.51L82.04 537.37" stroke="#132e65" stroke-width="1.5"></path><path d="M81.16 348.8L81.16 348.8" stroke="#132e65" stroke-width="1.5"></path><path d="M81.16 348.8L228.58 352.39" stroke="#132e65" stroke-width="1.5"></path><path d="M81.16 348.8L82.04 537.37" stroke="#132e65" stroke-width="1.5"></path><path d="M81.16 348.8L227.61 496.89" stroke="#132e65" stroke-width="1.5"></path><path d="M82.04 537.37L82.04 537.37" stroke="#132e65" stroke-width="1.5"></path><path d="M82.04 537.37L109.64 648.93" stroke="#132e65" stroke-width="1.5"></path><path d="M82.04 537.37L227.61 496.89" stroke="#132e65" stroke-width="1.5"></path><path d="M82.04 537.37L200.93 650.15" stroke="#132e65" stroke-width="1.5"></path><path d="M109.64 648.93L109.64 648.93" stroke="#132e65" stroke-width="1.5"></path><path d="M109.64 648.93L200.93 650.15" stroke="#132e65" stroke-width="1.5"></path><path d="M228.58 352.39L228.58 352.39" stroke="#132e65" stroke-width="1.5"></path><path d="M228.58 352.39L227.61 496.89" stroke="#132e65" stroke-width="1.5"></path><path d="M228.58 352.39L82.04 537.37" stroke="#132e65" stroke-width="1.5"></path><path d="M228.58 352.39L374.92 551.51" stroke="#132e65" stroke-width="1.5"></path><path d="M227.61 496.89L227.61 496.89" stroke="#132e65" stroke-width="1.5"></path><path d="M227.61 496.89L200.93 650.15" stroke="#132e65" stroke-width="1.5"></path><path d="M227.61 496.89L374.92 551.51" stroke="#132e65" stroke-width="1.5"></path><path d="M200.93 650.15L200.93 650.15" stroke="#132e65" stroke-width="1.5"></path><path d="M200.93 650.15L382 640.04" stroke="#132e65" stroke-width="1.5"></path><path d="M200.93 650.15L374.92 551.51" stroke="#132e65" stroke-width="1.5"></path><path d="M374.92 551.51L374.92 551.51" stroke="#132e65" stroke-width="1.5"></path><path d="M374.92 551.51L382 640.04" stroke="#132e65" stroke-width="1.5"></path><path d="M374.92 551.51L518.5 530.48" stroke="#132e65" stroke-width="1.5"></path><path d="M374.92 551.51L493.64 684.56" stroke="#132e65" stroke-width="1.5"></path><path d="M382 640.04L382 640.04" stroke="#132e65" stroke-width="1.5"></path><path d="M382 640.04L493.64 684.56" stroke="#132e65" stroke-width="1.5"></path><path d="M382 640.04L518.5 530.48" stroke="#132e65" stroke-width="1.5"></path><path d="M540.81 401.06L540.81 401.06" stroke="#132e65" stroke-width="1.5"></path><path d="M540.81 401.06L518.5 530.48" stroke="#132e65" stroke-width="1.5"></path><path d="M540.81 401.06L682.49 409.16" stroke="#132e65" stroke-width="1.5"></path><path d="M518.5 530.48L518.5 530.48" stroke="#132e65" stroke-width="1.5"></path><path d="M518.5 530.48L493.64 684.56" stroke="#132e65" stroke-width="1.5"></path><path d="M518.5 530.48L678.27 517.24" stroke="#132e65" stroke-width="1.5"></path><path d="M493.64 684.56L493.64 684.56" stroke="#132e65" stroke-width="1.5"></path><path d="M493.64 684.56L687.97 641.96" stroke="#132e65" stroke-width="1.5"></path><path d="M493.64 684.56L678.27 517.24" stroke="#132e65" stroke-width="1.5"></path><path d="M641.76 233.97L641.76 233.97" stroke="#132e65" stroke-width="1.5"></path><path d="M641.76 233.97L798.32 231.98" stroke="#132e65" stroke-width="1.5"></path><path d="M641.76 233.97L682.49 409.16" stroke="#132e65" stroke-width="1.5"></path><path d="M641.76 233.97L540.81 401.06" stroke="#132e65" stroke-width="1.5"></path><path d="M641.76 233.97L790.85 385.27" stroke="#132e65" stroke-width="1.5"></path><path d="M641.76 233.97L678.27 517.24" stroke="#132e65" stroke-width="1.5"></path><path d="M641.76 233.97L518.5 530.48" stroke="#132e65" stroke-width="1.5"></path><path d="M682.49 409.16L682.49 409.16" stroke="#132e65" stroke-width="1.5"></path><path d="M682.49 409.16L678.27 517.24" stroke="#132e65" stroke-width="1.5"></path><path d="M682.49 409.16L790.85 385.27" stroke="#132e65" stroke-width="1.5"></path><path d="M682.49 409.16L829.72 494.58" stroke="#132e65" stroke-width="1.5"></path><path d="M678.27 517.24L678.27 517.24" stroke="#132e65" stroke-width="1.5"></path><path d="M678.27 517.24L687.97 641.96" stroke="#132e65" stroke-width="1.5"></path><path d="M687.97 641.96L687.97 641.96" stroke="#132e65" stroke-width="1.5"></path><path d="M687.97 641.96L795.84 681.92" stroke="#132e65" stroke-width="1.5"></path><path d="M687.97 641.96L518.5 530.48" stroke="#132e65" stroke-width="1.5"></path><path d="M798.32 231.98L798.32 231.98" stroke="#132e65" stroke-width="1.5"></path><path d="M798.32 231.98L790.85 385.27" stroke="#132e65" stroke-width="1.5"></path><path d="M798.32 231.98L1002.15 248.15" stroke="#132e65" stroke-width="1.5"></path><path d="M798.32 231.98L938.9 77.83" stroke="#132e65" stroke-width="1.5"></path><path d="M790.85 385.27L790.85 385.27" stroke="#132e65" stroke-width="1.5"></path><path d="M790.85 385.27L829.72 494.58" stroke="#132e65" stroke-width="1.5"></path><path d="M790.85 385.27L678.27 517.24" stroke="#132e65" stroke-width="1.5"></path><path d="M790.85 385.27L981.97 349.33" stroke="#132e65" stroke-width="1.5"></path><path d="M829.72 494.58L829.72 494.58" stroke="#132e65" stroke-width="1.5"></path><path d="M829.72 494.58L940.97 551.46" stroke="#132e65" stroke-width="1.5"></path><path d="M829.72 494.58L678.27 517.24" stroke="#132e65" stroke-width="1.5"></path><path d="M795.84 681.92L795.84 681.92" stroke="#132e65" stroke-width="1.5"></path><path d="M795.84 681.92L948.55 700.77" stroke="#132e65" stroke-width="1.5"></path><path d="M1005.15 -51.11L1005.15 -51.11" stroke="#132e65" stroke-width="1.5"></path><path d="M1005.15 -51.11L1123.39 -52.96" stroke="#132e65" stroke-width="1.5"></path><path d="M1005.15 -51.11L938.9 77.83" stroke="#132e65" stroke-width="1.5"></path><path d="M938.9 77.83L938.9 77.83" stroke="#132e65" stroke-width="1.5"></path><path d="M938.9 77.83L1002.15 248.15" stroke="#132e65" stroke-width="1.5"></path><path d="M938.9 77.83L1145.63 107.13" stroke="#132e65" stroke-width="1.5"></path><path d="M1002.15 248.15L1002.15 248.15" stroke="#132e65" stroke-width="1.5"></path><path d="M1002.15 248.15L981.97 349.33" stroke="#132e65" stroke-width="1.5"></path><path d="M1002.15 248.15L1155.54 253.49" stroke="#132e65" stroke-width="1.5"></path><path d="M1002.15 248.15L1156.59 352.56" stroke="#132e65" stroke-width="1.5"></path><path d="M981.97 349.33L981.97 349.33" stroke="#132e65" stroke-width="1.5"></path><path d="M981.97 349.33L1156.59 352.56" stroke="#132e65" stroke-width="1.5"></path><path d="M940.97 551.46L940.97 551.46" stroke="#132e65" stroke-width="1.5"></path><path d="M940.97 551.46L948.55 700.77" stroke="#132e65" stroke-width="1.5"></path><path d="M940.97 551.46L1134.2 560.21" stroke="#132e65" stroke-width="1.5"></path><path d="M940.97 551.46L795.84 681.92" stroke="#132e65" stroke-width="1.5"></path><path d="M940.97 551.46L981.97 349.33" stroke="#132e65" stroke-width="1.5"></path><path d="M948.55 700.77L948.55 700.77" stroke="#132e65" stroke-width="1.5"></path><path d="M948.55 700.77L1096.22 696.93" stroke="#132e65" stroke-width="1.5"></path><path d="M948.55 700.77L1134.2 560.21" stroke="#132e65" stroke-width="1.5"></path><path d="M1123.39 -52.96L1123.39 -52.96" stroke="#132e65" stroke-width="1.5"></path><path d="M1123.39 -52.96L1145.63 107.13" stroke="#132e65" stroke-width="1.5"></path><path d="M1123.39 -52.96L1288.76 -84.44" stroke="#132e65" stroke-width="1.5"></path><path d="M1123.39 -52.96L1304.86 76.02" stroke="#132e65" stroke-width="1.5"></path><path d="M1123.39 -52.96L938.9 77.83" stroke="#132e65" stroke-width="1.5"></path><path d="M1123.39 -52.96L1398.75 -88.87" stroke="#132e65" stroke-width="1.5"></path><path d="M1145.63 107.13L1145.63 107.13" stroke="#132e65" stroke-width="1.5"></path><path d="M1145.63 107.13L1155.54 253.49" stroke="#132e65" stroke-width="1.5"></path><path d="M1145.63 107.13L1304.86 76.02" stroke="#132e65" stroke-width="1.5"></path><path d="M1155.54 253.49L1155.54 253.49" stroke="#132e65" stroke-width="1.5"></path><path d="M1155.54 253.49L1156.59 352.56" stroke="#132e65" stroke-width="1.5"></path><path d="M1155.54 253.49L1256.85 255.74" stroke="#132e65" stroke-width="1.5"></path><path d="M1156.59 352.56L1156.59 352.56" stroke="#132e65" stroke-width="1.5"></path><path d="M1156.59 352.56L1247.22 381.45" stroke="#132e65" stroke-width="1.5"></path><path d="M1156.59 352.56L1256.85 255.74" stroke="#132e65" stroke-width="1.5"></path><path d="M1156.59 352.56L1272.78 523.92" stroke="#132e65" stroke-width="1.5"></path><path d="M1134.2 560.21L1134.2 560.21" stroke="#132e65" stroke-width="1.5"></path><path d="M1134.2 560.21L1096.22 696.93" stroke="#132e65" stroke-width="1.5"></path><path d="M1134.2 560.21L1272.78 523.92" stroke="#132e65" stroke-width="1.5"></path><path d="M1134.2 560.21L1156.59 352.56" stroke="#132e65" stroke-width="1.5"></path><path d="M1134.2 560.21L1247.22 381.45" stroke="#132e65" stroke-width="1.5"></path><path d="M1134.2 560.21L1307.23 704.75" stroke="#132e65" stroke-width="1.5"></path><path d="M1096.22 696.93L1096.22 696.93" stroke="#132e65" stroke-width="1.5"></path><path d="M1288.76 -84.44L1288.76 -84.44" stroke="#132e65" stroke-width="1.5"></path><path d="M1288.76 -84.44L1398.75 -88.87" stroke="#132e65" stroke-width="1.5"></path><path d="M1288.76 -84.44L1304.86 76.02" stroke="#132e65" stroke-width="1.5"></path><path d="M1304.86 76.02L1304.86 76.02" stroke="#132e65" stroke-width="1.5"></path><path d="M1304.86 76.02L1449.32 81.13" stroke="#132e65" stroke-width="1.5"></path><path d="M1304.86 76.02L1256.85 255.74" stroke="#132e65" stroke-width="1.5"></path><path d="M1256.85 255.74L1256.85 255.74" stroke="#132e65" stroke-width="1.5"></path><path d="M1256.85 255.74L1247.22 381.45" stroke="#132e65" stroke-width="1.5"></path><path d="M1256.85 255.74L1145.63 107.13" stroke="#132e65" stroke-width="1.5"></path><path d="M1247.22 381.45L1247.22 381.45" stroke="#132e65" stroke-width="1.5"></path><path d="M1247.22 381.45L1272.78 523.92" stroke="#132e65" stroke-width="1.5"></path><path d="M1247.22 381.45L1155.54 253.49" stroke="#132e65" stroke-width="1.5"></path><path d="M1247.22 381.45L1405.51 374.13" stroke="#132e65" stroke-width="1.5"></path><path d="M1272.78 523.92L1272.78 523.92" stroke="#132e65" stroke-width="1.5"></path><path d="M1272.78 523.92L1419.23 555.92" stroke="#132e65" stroke-width="1.5"></path><path d="M1272.78 523.92L1307.23 704.75" stroke="#132e65" stroke-width="1.5"></path><path d="M1272.78 523.92L1405.51 374.13" stroke="#132e65" stroke-width="1.5"></path><path d="M1307.23 704.75L1307.23 704.75" stroke="#132e65" stroke-width="1.5"></path><path d="M1307.23 704.75L1446.34 664.69" stroke="#132e65" stroke-width="1.5"></path><path d="M1307.23 704.75L1419.23 555.92" stroke="#132e65" stroke-width="1.5"></path><path d="M1307.23 704.75L1096.22 696.93" stroke="#132e65" stroke-width="1.5"></path><path d="M1398.75 -88.87L1398.75 -88.87" stroke="#132e65" stroke-width="1.5"></path><path d="M1398.75 -88.87L1566.44 -103.36" stroke="#132e65" stroke-width="1.5"></path><path d="M1398.75 -88.87L1449.32 81.13" stroke="#132e65" stroke-width="1.5"></path><path d="M1449.32 81.13L1449.32 81.13" stroke="#132e65" stroke-width="1.5"></path><path d="M1449.32 81.13L1554.75 67.03" stroke="#132e65" stroke-width="1.5"></path><path d="M1449.32 81.13L1446.81 196.67" stroke="#132e65" stroke-width="1.5"></path><path d="M1449.32 81.13L1587.33 199.97" stroke="#132e65" stroke-width="1.5"></path><path d="M1446.81 196.67L1446.81 196.67" stroke="#132e65" stroke-width="1.5"></path><path d="M1446.81 196.67L1587.33 199.97" stroke="#132e65" stroke-width="1.5"></path><path d="M1405.51 374.13L1405.51 374.13" stroke="#132e65" stroke-width="1.5"></path><path d="M1405.51 374.13L1557.27 373.38" stroke="#132e65" stroke-width="1.5"></path><path d="M1405.51 374.13L1446.81 196.67" stroke="#132e65" stroke-width="1.5"></path><path d="M1419.23 555.92L1419.23 555.92" stroke="#132e65" stroke-width="1.5"></path><path d="M1419.23 555.92L1446.34 664.69" stroke="#132e65" stroke-width="1.5"></path><path d="M1419.23 555.92L1545.16 647.05" stroke="#132e65" stroke-width="1.5"></path><path d="M1419.23 555.92L1405.51 374.13" stroke="#132e65" stroke-width="1.5"></path><path d="M1419.23 555.92L1557.27 373.38" stroke="#132e65" stroke-width="1.5"></path><path d="M1446.34 664.69L1446.34 664.69" stroke="#132e65" stroke-width="1.5"></path><path d="M1446.34 664.69L1545.16 647.05" stroke="#132e65" stroke-width="1.5"></path><path d="M1566.44 -103.36L1566.44 -103.36" stroke="#132e65" stroke-width="1.5"></path><path d="M1566.44 -103.36L1554.75 67.03" stroke="#132e65" stroke-width="1.5"></path><path d="M1566.44 -103.36L1449.32 81.13" stroke="#132e65" stroke-width="1.5"></path><path d="M1554.75 67.03L1554.75 67.03" stroke="#132e65" stroke-width="1.5"></path><path d="M1554.75 67.03L1587.33 199.97" stroke="#132e65" stroke-width="1.5"></path><path d="M1554.75 67.03L1446.81 196.67" stroke="#132e65" stroke-width="1.5"></path><path d="M1587.33 199.97L1587.33 199.97" stroke="#132e65" stroke-width="1.5"></path><path d="M1587.33 199.97L1557.27 373.38" stroke="#132e65" stroke-width="1.5"></path><path d="M1587.33 199.97L1405.51 374.13" stroke="#132e65" stroke-width="1.5"></path><path d="M1557.27 373.38L1557.27 373.38" stroke="#132e65" stroke-width="1.5"></path><path d="M1557.27 373.38L1446.81 196.67" stroke="#132e65" stroke-width="1.5"></path><path d="M1545.16 647.05L1545.16 647.05" stroke="#132e65" stroke-width="1.5"></path><path d="M1545.16 647.05L1307.23 704.75" stroke="#132e65" stroke-width="1.5"></path><circle r="5" cx="-70.92" cy="529.27" fill="#132e65"></circle><circle r="5" cx="-103.72" cy="640.51" fill="#132e65"></circle><circle r="5" cx="81.16" cy="348.8" fill="#132e65"></circle><circle r="5" cx="82.04" cy="537.37" fill="#132e65"></circle><circle r="5" cx="109.64" cy="648.93" fill="#132e65"></circle><circle r="5" cx="228.58" cy="352.39" fill="#132e65"></circle><circle r="5" cx="227.61" cy="496.89" fill="#132e65"></circle><circle r="5" cx="200.93" cy="650.15" fill="#132e65"></circle><circle r="5" cx="374.92" cy="551.51" fill="#132e65"></circle><circle r="5" cx="382" cy="640.04" fill="#132e65"></circle><circle r="5" cx="540.81" cy="401.06" fill="#132e65"></circle><circle r="5" cx="518.5" cy="530.48" fill="#132e65"></circle><circle r="5" cx="493.64" cy="684.56" fill="#132e65"></circle><circle r="5" cx="641.76" cy="233.97" fill="#132e65"></circle><circle r="5" cx="682.49" cy="409.16" fill="#132e65"></circle><circle r="5" cx="678.27" cy="517.24" fill="#132e65"></circle><circle r="5" cx="687.97" cy="641.96" fill="#132e65"></circle><circle r="5" cx="798.32" cy="231.98" fill="#132e65"></circle><circle r="5" cx="790.85" cy="385.27" fill="#132e65"></circle><circle r="5" cx="829.72" cy="494.58" fill="#132e65"></circle><circle r="5" cx="795.84" cy="681.92" fill="#132e65"></circle><circle r="5" cx="1005.15" cy="-51.11" fill="#132e65"></circle><circle r="5" cx="938.9" cy="77.83" fill="#132e65"></circle><circle r="5" cx="1002.15" cy="248.15" fill="#132e65"></circle><circle r="5" cx="981.97" cy="349.33" fill="#132e65"></circle><circle r="5" cx="940.97" cy="551.46" fill="#132e65"></circle><circle r="5" cx="948.55" cy="700.77" fill="#132e65"></circle><circle r="5" cx="1123.39" cy="-52.96" fill="#132e65"></circle><circle r="5" cx="1145.63" cy="107.13" fill="#132e65"></circle><circle r="5" cx="1155.54" cy="253.49" fill="#132e65"></circle><circle r="5" cx="1156.59" cy="352.56" fill="#132e65"></circle><circle r="5" cx="1134.2" cy="560.21" fill="#132e65"></circle><circle r="5" cx="1096.22" cy="696.93" fill="#132e65"></circle><circle r="5" cx="1288.76" cy="-84.44" fill="#132e65"></circle><circle r="5" cx="1304.86" cy="76.02" fill="#132e65"></circle><circle r="5" cx="1256.85" cy="255.74" fill="#132e65"></circle><circle r="5" cx="1247.22" cy="381.45" fill="#132e65"></circle><circle r="5" cx="1272.78" cy="523.92" fill="#132e65"></circle><circle r="5" cx="1307.23" cy="704.75" fill="#132e65"></circle><circle r="5" cx="1398.75" cy="-88.87" fill="#132e65"></circle><circle r="5" cx="1449.32" cy="81.13" fill="#132e65"></circle><circle r="5" cx="1446.81" cy="196.67" fill="#132e65"></circle><circle r="5" cx="1405.51" cy="374.13" fill="#132e65"></circle><circle r="5" cx="1419.23" cy="555.92" fill="#132e65"></circle><circle r="5" cx="1446.34" cy="664.69" fill="#132e65"></circle><circle r="5" cx="1566.44" cy="-103.36" fill="#132e65"></circle><circle r="5" cx="1554.75" cy="67.03" fill="#132e65"></circle><circle r="5" cx="1587.33" cy="199.97" fill="#132e65"></circle><circle r="5" cx="1557.27" cy="373.38" fill="#132e65"></circle><circle r="5" cx="1545.16" cy="647.05" fill="#132e65"></circle><path d="M63.05 536.92L63.05 536.92" stroke="hsl(228.5, 77.2%, 51.5%)" stroke-width="1.5"></path><path d="M63.05 536.92L-44.83 552.91" stroke="hsl(228.5, 77.2%, 51.5%)" stroke-width="1.5"></path><path d="M63.05 536.92L69.22 655.75" stroke="hsl(228.5, 77.2%, 51.5%)" stroke-width="1.5"></path><path d="M63.05 536.92L-47.58 682.44" stroke="hsl(228.5, 77.2%, 51.5%)" stroke-width="1.5"></path><path d="M229.83 653.33L229.83 653.33" stroke="hsl(228.5, 77.2%, 51.5%)" stroke-width="1.5"></path><path d="M229.83 653.33L259.61 531.37" stroke="hsl(228.5, 77.2%, 51.5%)" stroke-width="1.5"></path><path d="M229.83 653.33L378.13 647.08" stroke="hsl(228.5, 77.2%, 51.5%)" stroke-width="1.5"></path><path d="M839.24 554.8L839.24 554.8" stroke="hsl(228.5, 77.2%, 51.5%)" stroke-width="1.5"></path><path d="M839.24 554.8L837.53 667.43" stroke="hsl(228.5, 77.2%, 51.5%)" stroke-width="1.5"></path><path d="M839.24 554.8L855.34 412.39" stroke="hsl(228.5, 77.2%, 51.5%)" stroke-width="1.5"></path><path d="M839.24 554.8L682.91 490.8" stroke="hsl(228.5, 77.2%, 51.5%)" stroke-width="1.5"></path><path d="M839.24 554.8L1006.61 529.24" stroke="hsl(228.5, 77.2%, 51.5%)" stroke-width="1.5"></path><path d="M839.24 554.8L982.7 690.08" stroke="hsl(228.5, 77.2%, 51.5%)" stroke-width="1.5"></path><path d="M839.24 554.8L676.19 702.82" stroke="hsl(228.5, 77.2%, 51.5%)" stroke-width="1.5"></path><path d="M1006.61 529.24L1006.61 529.24" stroke="hsl(228.5, 77.2%, 51.5%)" stroke-width="1.5"></path><path d="M1006.61 529.24L1093.15 501.96" stroke="hsl(228.5, 77.2%, 51.5%)" stroke-width="1.5"></path><path d="M1006.61 529.24L1103.69 638.08" stroke="hsl(228.5, 77.2%, 51.5%)" stroke-width="1.5"></path><path d="M982.7 690.08L982.7 690.08" stroke="hsl(228.5, 77.2%, 51.5%)" stroke-width="1.5"></path><path d="M982.7 690.08L1103.69 638.08" stroke="hsl(228.5, 77.2%, 51.5%)" stroke-width="1.5"></path><path d="M982.7 690.08L837.53 667.43" stroke="hsl(228.5, 77.2%, 51.5%)" stroke-width="1.5"></path><path d="M982.7 690.08L1006.61 529.24" stroke="hsl(228.5, 77.2%, 51.5%)" stroke-width="1.5"></path><path d="M982.7 690.08L1093.15 501.96" stroke="hsl(228.5, 77.2%, 51.5%)" stroke-width="1.5"></path><path d="M982.7 690.08L1246.52 638.6" stroke="hsl(228.5, 77.2%, 51.5%)" stroke-width="1.5"></path><path d="M1143.13 79.61L1143.13 79.61" stroke="hsl(228.5, 77.2%, 51.5%)" stroke-width="1.5"></path><path d="M1143.13 79.61L1260.11 89.96" stroke="hsl(228.5, 77.2%, 51.5%)" stroke-width="1.5"></path><path d="M1143.13 79.61L1104.37 201.52" stroke="hsl(228.5, 77.2%, 51.5%)" stroke-width="1.5"></path><path d="M1143.13 79.61L1157.65 -68.28" stroke="hsl(228.5, 77.2%, 51.5%)" stroke-width="1.5"></path><path d="M1143.13 79.61L1253.46 256.67" stroke="hsl(228.5, 77.2%, 51.5%)" stroke-width="1.5"></path><path d="M1087.67 399.7L1087.67 399.7" stroke="hsl(228.5, 77.2%, 51.5%)" stroke-width="1.5"></path><path d="M1087.67 399.7L1093.15 501.96" stroke="hsl(228.5, 77.2%, 51.5%)" stroke-width="1.5"></path><path d="M1087.67 399.7L1006.61 529.24" stroke="hsl(228.5, 77.2%, 51.5%)" stroke-width="1.5"></path><path d="M1087.67 399.7L1244.71 373.06" stroke="hsl(228.5, 77.2%, 51.5%)" stroke-width="1.5"></path><path d="M1087.67 399.7L1104.37 201.52" stroke="hsl(228.5, 77.2%, 51.5%)" stroke-width="1.5"></path><path d="M1087.67 399.7L1253.46 256.67" stroke="hsl(228.5, 77.2%, 51.5%)" stroke-width="1.5"></path><path d="M1260.11 89.96L1260.11 89.96" stroke="hsl(228.5, 77.2%, 51.5%)" stroke-width="1.5"></path><path d="M1260.11 89.96L1398.8 45.11" stroke="hsl(228.5, 77.2%, 51.5%)" stroke-width="1.5"></path><path d="M1260.11 89.96L1253.46 256.67" stroke="hsl(228.5, 77.2%, 51.5%)" stroke-width="1.5"></path><path d="M1260.11 89.96L1157.65 -68.28" stroke="hsl(228.5, 77.2%, 51.5%)" stroke-width="1.5"></path><path d="M1260.11 89.96L1104.37 201.52" stroke="hsl(228.5, 77.2%, 51.5%)" stroke-width="1.5"></path><path d="M1253.46 256.67L1253.46 256.67" stroke="hsl(228.5, 77.2%, 51.5%)" stroke-width="1.5"></path><path d="M1253.46 256.67L1244.71 373.06" stroke="hsl(228.5, 77.2%, 51.5%)" stroke-width="1.5"></path><path d="M1253.46 256.67L1392.22 249.73" stroke="hsl(228.5, 77.2%, 51.5%)" stroke-width="1.5"></path><path d="M1253.46 256.67L1104.37 201.52" stroke="hsl(228.5, 77.2%, 51.5%)" stroke-width="1.5"></path><path d="M1557.13 42.87L1557.13 42.87" stroke="hsl(228.5, 77.2%, 51.5%)" stroke-width="1.5"></path><path d="M1557.13 42.87L1579.85 -104.26" stroke="hsl(228.5, 77.2%, 51.5%)" stroke-width="1.5"></path><path d="M1557.13 42.87L1398.8 45.11" stroke="hsl(228.5, 77.2%, 51.5%)" stroke-width="1.5"></path><path d="M1557.13 42.87L1434.18 -79.09" stroke="hsl(228.5, 77.2%, 51.5%)" stroke-width="1.5"></path><path d="M1557.13 42.87L1551.48 229.03" stroke="hsl(228.5, 77.2%, 51.5%)" stroke-width="1.5"></path><path d="M1551.48 229.03L1551.48 229.03" stroke="hsl(228.5, 77.2%, 51.5%)" stroke-width="1.5"></path><path d="M1551.48 229.03L1609.73 369.43" stroke="hsl(228.5, 77.2%, 51.5%)" stroke-width="1.5"></path><path d="M1551.48 229.03L1392.22 249.73" stroke="hsl(228.5, 77.2%, 51.5%)" stroke-width="1.5"></path><path d="M-44.83 552.91L-44.83 552.91" stroke="hsl(228.5, 77.2%, 51.5%)" stroke-width="1.5"></path><path d="M-44.83 552.91L-47.58 682.44" stroke="hsl(228.5, 77.2%, 51.5%)" stroke-width="1.5"></path><path d="M-44.83 552.91L69.22 655.75" stroke="hsl(228.5, 77.2%, 51.5%)" stroke-width="1.5"></path><path d="M-47.58 682.44L-47.58 682.44" stroke="hsl(228.5, 77.2%, 51.5%)" stroke-width="1.5"></path><path d="M-47.58 682.44L69.22 655.75" stroke="hsl(228.5, 77.2%, 51.5%)" stroke-width="1.5"></path><path d="M69.22 655.75L69.22 655.75" stroke="hsl(228.5, 77.2%, 51.5%)" stroke-width="1.5"></path><path d="M69.22 655.75L229.83 653.33" stroke="hsl(228.5, 77.2%, 51.5%)" stroke-width="1.5"></path><path d="M69.22 655.75L259.61 531.37" stroke="hsl(228.5, 77.2%, 51.5%)" stroke-width="1.5"></path><path d="M259.61 531.37L259.61 531.37" stroke="hsl(228.5, 77.2%, 51.5%)" stroke-width="1.5"></path><path d="M259.61 531.37L383.43 512.05" stroke="hsl(228.5, 77.2%, 51.5%)" stroke-width="1.5"></path><path d="M383.43 512.05L383.43 512.05" stroke="hsl(228.5, 77.2%, 51.5%)" stroke-width="1.5"></path><path d="M383.43 512.05L511.36 511.78" stroke="hsl(228.5, 77.2%, 51.5%)" stroke-width="1.5"></path><path d="M383.43 512.05L378.13 647.08" stroke="hsl(228.5, 77.2%, 51.5%)" stroke-width="1.5"></path><path d="M383.43 512.05L550.16 399.27" stroke="hsl(228.5, 77.2%, 51.5%)" stroke-width="1.5"></path><path d="M383.43 512.05L229.83 653.33" stroke="hsl(228.5, 77.2%, 51.5%)" stroke-width="1.5"></path><path d="M378.13 647.08L378.13 647.08" stroke="hsl(228.5, 77.2%, 51.5%)" stroke-width="1.5"></path><path d="M378.13 647.08L259.61 531.37" stroke="hsl(228.5, 77.2%, 51.5%)" stroke-width="1.5"></path><path d="M378.13 647.08L555.38 682.32" stroke="hsl(228.5, 77.2%, 51.5%)" stroke-width="1.5"></path><path d="M550.16 399.27L550.16 399.27" stroke="hsl(228.5, 77.2%, 51.5%)" stroke-width="1.5"></path><path d="M550.16 399.27L511.36 511.78" stroke="hsl(228.5, 77.2%, 51.5%)" stroke-width="1.5"></path><path d="M550.16 399.27L672.66 365.03" stroke="hsl(228.5, 77.2%, 51.5%)" stroke-width="1.5"></path><path d="M550.16 399.27L682.91 490.8" stroke="hsl(228.5, 77.2%, 51.5%)" stroke-width="1.5"></path><path d="M550.16 399.27L555.38 682.32" stroke="hsl(228.5, 77.2%, 51.5%)" stroke-width="1.5"></path><path d="M550.16 399.27L378.13 647.08" stroke="hsl(228.5, 77.2%, 51.5%)" stroke-width="1.5"></path><path d="M511.36 511.78L511.36 511.78" stroke="hsl(228.5, 77.2%, 51.5%)" stroke-width="1.5"></path><path d="M511.36 511.78L682.91 490.8" stroke="hsl(228.5, 77.2%, 51.5%)" stroke-width="1.5"></path><path d="M511.36 511.78L555.38 682.32" stroke="hsl(228.5, 77.2%, 51.5%)" stroke-width="1.5"></path><path d="M511.36 511.78L378.13 647.08" stroke="hsl(228.5, 77.2%, 51.5%)" stroke-width="1.5"></path><path d="M511.36 511.78L672.66 365.03" stroke="hsl(228.5, 77.2%, 51.5%)" stroke-width="1.5"></path><path d="M555.38 682.32L555.38 682.32" stroke="hsl(228.5, 77.2%, 51.5%)" stroke-width="1.5"></path><path d="M555.38 682.32L676.19 702.82" stroke="hsl(228.5, 77.2%, 51.5%)" stroke-width="1.5"></path><path d="M555.38 682.32L682.91 490.8" stroke="hsl(228.5, 77.2%, 51.5%)" stroke-width="1.5"></path><path d="M672.66 365.03L672.66 365.03" stroke="hsl(228.5, 77.2%, 51.5%)" stroke-width="1.5"></path><path d="M672.66 365.03L682.91 490.8" stroke="hsl(228.5, 77.2%, 51.5%)" stroke-width="1.5"></path><path d="M672.66 365.03L855.34 412.39" stroke="hsl(228.5, 77.2%, 51.5%)" stroke-width="1.5"></path><path d="M682.91 490.8L682.91 490.8" stroke="hsl(228.5, 77.2%, 51.5%)" stroke-width="1.5"></path><path d="M676.19 702.82L676.19 702.82" stroke="hsl(228.5, 77.2%, 51.5%)" stroke-width="1.5"></path><path d="M676.19 702.82L837.53 667.43" stroke="hsl(228.5, 77.2%, 51.5%)" stroke-width="1.5"></path><path d="M855.34 412.39L855.34 412.39" stroke="hsl(228.5, 77.2%, 51.5%)" stroke-width="1.5"></path><path d="M855.34 412.39L682.91 490.8" stroke="hsl(228.5, 77.2%, 51.5%)" stroke-width="1.5"></path><path d="M837.53 667.43L837.53 667.43" stroke="hsl(228.5, 77.2%, 51.5%)" stroke-width="1.5"></path><path d="M837.53 667.43L1006.61 529.24" stroke="hsl(228.5, 77.2%, 51.5%)" stroke-width="1.5"></path><path d="M837.53 667.43L682.91 490.8" stroke="hsl(228.5, 77.2%, 51.5%)" stroke-width="1.5"></path><path d="M1157.65 -68.28L1157.65 -68.28" stroke="hsl(228.5, 77.2%, 51.5%)" stroke-width="1.5"></path><path d="M1157.65 -68.28L1253.57 -102.62" stroke="hsl(228.5, 77.2%, 51.5%)" stroke-width="1.5"></path><path d="M1157.65 -68.28L1398.8 45.11" stroke="hsl(228.5, 77.2%, 51.5%)" stroke-width="1.5"></path><path d="M1157.65 -68.28L1104.37 201.52" stroke="hsl(228.5, 77.2%, 51.5%)" stroke-width="1.5"></path><path d="M1157.65 -68.28L1434.18 -79.09" stroke="hsl(228.5, 77.2%, 51.5%)" stroke-width="1.5"></path><path d="M1104.37 201.52L1104.37 201.52" stroke="hsl(228.5, 77.2%, 51.5%)" stroke-width="1.5"></path><path d="M1093.15 501.96L1093.15 501.96" stroke="hsl(228.5, 77.2%, 51.5%)" stroke-width="1.5"></path><path d="M1093.15 501.96L1103.69 638.08" stroke="hsl(228.5, 77.2%, 51.5%)" stroke-width="1.5"></path><path d="M1093.15 501.96L1284.98 499.58" stroke="hsl(228.5, 77.2%, 51.5%)" stroke-width="1.5"></path><path d="M1093.15 501.96L1244.71 373.06" stroke="hsl(228.5, 77.2%, 51.5%)" stroke-width="1.5"></path><path d="M1093.15 501.96L1246.52 638.6" stroke="hsl(228.5, 77.2%, 51.5%)" stroke-width="1.5"></path><path d="M1103.69 638.08L1103.69 638.08" stroke="hsl(228.5, 77.2%, 51.5%)" stroke-width="1.5"></path><path d="M1103.69 638.08L1246.52 638.6" stroke="hsl(228.5, 77.2%, 51.5%)" stroke-width="1.5"></path><path d="M1253.57 -102.62L1253.57 -102.62" stroke="hsl(228.5, 77.2%, 51.5%)" stroke-width="1.5"></path><path d="M1253.57 -102.62L1434.18 -79.09" stroke="hsl(228.5, 77.2%, 51.5%)" stroke-width="1.5"></path><path d="M1253.57 -102.62L1260.11 89.96" stroke="hsl(228.5, 77.2%, 51.5%)" stroke-width="1.5"></path><path d="M1253.57 -102.62L1398.8 45.11" stroke="hsl(228.5, 77.2%, 51.5%)" stroke-width="1.5"></path><path d="M1253.57 -102.62L1143.13 79.61" stroke="hsl(228.5, 77.2%, 51.5%)" stroke-width="1.5"></path><path d="M1253.57 -102.62L1579.85 -104.26" stroke="hsl(228.5, 77.2%, 51.5%)" stroke-width="1.5"></path><path d="M1244.71 373.06L1244.71 373.06" stroke="hsl(228.5, 77.2%, 51.5%)" stroke-width="1.5"></path><path d="M1244.71 373.06L1284.98 499.58" stroke="hsl(228.5, 77.2%, 51.5%)" stroke-width="1.5"></path><path d="M1244.71 373.06L1392.22 249.73" stroke="hsl(228.5, 77.2%, 51.5%)" stroke-width="1.5"></path><path d="M1284.98 499.58L1284.98 499.58" stroke="hsl(228.5, 77.2%, 51.5%)" stroke-width="1.5"></path><path d="M1284.98 499.58L1246.52 638.6" stroke="hsl(228.5, 77.2%, 51.5%)" stroke-width="1.5"></path><path d="M1284.98 499.58L1461.16 546.02" stroke="hsl(228.5, 77.2%, 51.5%)" stroke-width="1.5"></path><path d="M1284.98 499.58L1389.94 649.86" stroke="hsl(228.5, 77.2%, 51.5%)" stroke-width="1.5"></path><path d="M1246.52 638.6L1246.52 638.6" stroke="hsl(228.5, 77.2%, 51.5%)" stroke-width="1.5"></path><path d="M1434.18 -79.09L1434.18 -79.09" stroke="hsl(228.5, 77.2%, 51.5%)" stroke-width="1.5"></path><path d="M1434.18 -79.09L1398.8 45.11" stroke="hsl(228.5, 77.2%, 51.5%)" stroke-width="1.5"></path><path d="M1434.18 -79.09L1579.85 -104.26" stroke="hsl(228.5, 77.2%, 51.5%)" stroke-width="1.5"></path><path d="M1434.18 -79.09L1260.11 89.96" stroke="hsl(228.5, 77.2%, 51.5%)" stroke-width="1.5"></path><path d="M1398.8 45.11L1398.8 45.11" stroke="hsl(228.5, 77.2%, 51.5%)" stroke-width="1.5"></path><path d="M1398.8 45.11L1392.22 249.73" stroke="hsl(228.5, 77.2%, 51.5%)" stroke-width="1.5"></path><path d="M1398.8 45.11L1579.85 -104.26" stroke="hsl(228.5, 77.2%, 51.5%)" stroke-width="1.5"></path><path d="M1392.22 249.73L1392.22 249.73" stroke="hsl(228.5, 77.2%, 51.5%)" stroke-width="1.5"></path><path d="M1392.22 249.73L1454.54 399.15" stroke="hsl(228.5, 77.2%, 51.5%)" stroke-width="1.5"></path><path d="M1454.54 399.15L1454.54 399.15" stroke="hsl(228.5, 77.2%, 51.5%)" stroke-width="1.5"></path><path d="M1454.54 399.15L1461.16 546.02" stroke="hsl(228.5, 77.2%, 51.5%)" stroke-width="1.5"></path><path d="M1454.54 399.15L1609.73 369.43" stroke="hsl(228.5, 77.2%, 51.5%)" stroke-width="1.5"></path><path d="M1461.16 546.02L1461.16 546.02" stroke="hsl(228.5, 77.2%, 51.5%)" stroke-width="1.5"></path><path d="M1461.16 546.02L1579.1 529.22" stroke="hsl(228.5, 77.2%, 51.5%)" stroke-width="1.5"></path><path d="M1389.94 649.86L1389.94 649.86" stroke="hsl(228.5, 77.2%, 51.5%)" stroke-width="1.5"></path><path d="M1389.94 649.86L1461.16 546.02" stroke="hsl(228.5, 77.2%, 51.5%)" stroke-width="1.5"></path><path d="M1389.94 649.86L1246.52 638.6" stroke="hsl(228.5, 77.2%, 51.5%)" stroke-width="1.5"></path><path d="M1389.94 649.86L1579.27 645.05" stroke="hsl(228.5, 77.2%, 51.5%)" stroke-width="1.5"></path><path d="M1579.85 -104.26L1579.85 -104.26" stroke="hsl(228.5, 77.2%, 51.5%)" stroke-width="1.5"></path><path d="M1579.85 -104.26L1551.48 229.03" stroke="hsl(228.5, 77.2%, 51.5%)" stroke-width="1.5"></path><path d="M1609.73 369.43L1609.73 369.43" stroke="hsl(228.5, 77.2%, 51.5%)" stroke-width="1.5"></path><path d="M1609.73 369.43L1579.1 529.22" stroke="hsl(228.5, 77.2%, 51.5%)" stroke-width="1.5"></path><path d="M1609.73 369.43L1461.16 546.02" stroke="hsl(228.5, 77.2%, 51.5%)" stroke-width="1.5"></path><path d="M1609.73 369.43L1392.22 249.73" stroke="hsl(228.5, 77.2%, 51.5%)" stroke-width="1.5"></path><path d="M1609.73 369.43L1579.27 645.05" stroke="hsl(228.5, 77.2%, 51.5%)" stroke-width="1.5"></path><path d="M1579.1 529.22L1579.1 529.22" stroke="hsl(228.5, 77.2%, 51.5%)" stroke-width="1.5"></path><path d="M1579.1 529.22L1579.27 645.05" stroke="hsl(228.5, 77.2%, 51.5%)" stroke-width="1.5"></path><path d="M1579.1 529.22L1454.54 399.15" stroke="hsl(228.5, 77.2%, 51.5%)" stroke-width="1.5"></path><path d="M1579.27 645.05L1579.27 645.05" stroke="hsl(228.5, 77.2%, 51.5%)" stroke-width="1.5"></path><path d="M1579.27 645.05L1461.16 546.02" stroke="hsl(228.5, 77.2%, 51.5%)" stroke-width="1.5"></path><path d="M1579.27 645.05L1454.54 399.15" stroke="hsl(228.5, 77.2%, 51.5%)" stroke-width="1.5"></path><path d="M1579.27 645.05L1284.98 499.58" stroke="hsl(228.5, 77.2%, 51.5%)" stroke-width="1.5"></path><circle r="25" cx="63.05" cy="536.92" fill="url(#SvgjsRadialGradient1001)"></circle><circle r="25" cx="229.83" cy="653.33" fill="url(#SvgjsRadialGradient1001)"></circle><circle r="25" cx="839.24" cy="554.8" fill="url(#SvgjsRadialGradient1001)"></circle><circle r="25" cx="1006.61" cy="529.24" fill="url(#SvgjsRadialGradient1001)"></circle><circle r="25" cx="982.7" cy="690.08" fill="url(#SvgjsRadialGradient1001)"></circle><circle r="25" cx="1143.13" cy="79.61" fill="url(#SvgjsRadialGradient1001)"></circle><circle r="25" cx="1087.67" cy="399.7" fill="url(#SvgjsRadialGradient1001)"></circle><circle r="25" cx="1260.11" cy="89.96" fill="url(#SvgjsRadialGradient1001)"></circle><circle r="25" cx="1253.46" cy="256.67" fill="url(#SvgjsRadialGradient1001)"></circle><circle r="25" cx="1557.13" cy="42.87" fill="url(#SvgjsRadialGradient1001)"></circle><circle r="25" cx="1551.48" cy="229.03" fill="url(#SvgjsRadialGradient1001)"></circle><circle r="5" cx="-44.83" cy="552.91" fill="#8b9ad9"></circle><circle r="5" cx="-47.58" cy="682.44" fill="#8b9ad9"></circle><circle r="5" cx="69.22" cy="655.75" fill="#8b9ad9"></circle><circle r="5" cx="259.61" cy="531.37" fill="#8b9ad9"></circle><circle r="5" cx="383.43" cy="512.05" fill="#8b9ad9"></circle><circle r="5" cx="378.13" cy="647.08" fill="#8b9ad9"></circle><circle r="5" cx="550.16" cy="399.27" fill="#8b9ad9"></circle><circle r="5" cx="511.36" cy="511.78" fill="#8b9ad9"></circle><circle r="5" cx="555.38" cy="682.32" fill="#8b9ad9"></circle><circle r="5" cx="672.66" cy="365.03" fill="#8b9ad9"></circle><circle r="5" cx="682.91" cy="490.8" fill="#8b9ad9"></circle><circle r="5" cx="676.19" cy="702.82" fill="#8b9ad9"></circle><circle r="5" cx="855.34" cy="412.39" fill="#8b9ad9"></circle><circle r="5" cx="837.53" cy="667.43" fill="#8b9ad9"></circle><circle r="5" cx="1157.65" cy="-68.28" fill="#8b9ad9"></circle><circle r="5" cx="1104.37" cy="201.52" fill="#8b9ad9"></circle><circle r="5" cx="1093.15" cy="501.96" fill="#8b9ad9"></circle><circle r="5" cx="1103.69" cy="638.08" fill="#8b9ad9"></circle><circle r="5" cx="1253.57" cy="-102.62" fill="#8b9ad9"></circle><circle r="5" cx="1244.71" cy="373.06" fill="#8b9ad9"></circle><circle r="5" cx="1284.98" cy="499.58" fill="#8b9ad9"></circle><circle r="5" cx="1246.52" cy="638.6" fill="#8b9ad9"></circle><circle r="5" cx="1434.18" cy="-79.09" fill="#8b9ad9"></circle><circle r="5" cx="1398.8" cy="45.11" fill="#8b9ad9"></circle><circle r="5" cx="1392.22" cy="249.73" fill="#8b9ad9"></circle><circle r="5" cx="1454.54" cy="399.15" fill="#8b9ad9"></circle><circle r="5" cx="1461.16" cy="546.02" fill="#8b9ad9"></circle><circle r="5" cx="1389.94" cy="649.86" fill="#8b9ad9"></circle><circle r="5" cx="1579.85" cy="-104.26" fill="#8b9ad9"></circle><circle r="5" cx="1609.73" cy="369.43" fill="#8b9ad9"></circle><circle r="5" cx="1579.1" cy="529.22" fill="#8b9ad9"></circle><circle r="5" cx="1579.27" cy="645.05" fill="#8b9ad9"></circle></g><defs><mask id="SvgjsMask1000"><rect width="1440" height="560" fill="#ffffff"></rect></mask><radialGradient id="SvgjsRadialGradient1001"><stop stop-color="#ffffff" offset="0.1"></stop><stop stop-color="#1735b3" offset="0.2"></stop><stop stop-color="rgba(23, 53, 179, 0)" offset="1"></stop></radialGradient></defs></svg>